<?xml version="1.0" encoding="UTF-8" standalone="no"?>
<svg width="510" xmlns="http://www.w3.org/2000/svg" fill="none" viewBox="0 0 510 391" height="391">
 <g filter="url(#filter0_d)">
  <mask id="path-1-outside-1" height="383" width="502" y="0" x="4" maskUnits="userSpaceOnUse" fill="black">
   <rect x="4" height="383" width="502" fill="#fff"/>
   <path clip-rule="evenodd" d="m419.02 12c3.81 0 7.1 1.368 9.86 4.103 2.77 2.735 4.16 5.983 4.16 9.744v17.562l58.39 33.71c3.33 1.925 3.33 6.736 0 8.661l-58.39 33.71v237.66c0 3.76-1.39 7.01-4.16 9.75-2.76 2.73-6.05 4.1-9.86 4.1h-83.58c-8.31 0-15.23-3.59-20.77-10.77l-113.18-142.57v139.49c0 3.76-1.39 7.01-4.15 9.75-2.77 2.73-6.06 4.1-9.87 4.1h-96.564c-3.808 0-7.096-1.37-9.865-4.1-2.769-2.74-4.153-5.99-4.153-9.75v-15.07l-58.388-33.71c-3.333-1.92-3.333-6.73 0-8.66l58.388-33.71v-240.15c0-3.764 1.384-7.012 4.153-9.747s6.057-4.103 9.865-4.103h84.104c8.31 0 15.06 3.419 20.25 10.257l113.18 154.37v-150.78c0-3.764 1.38-7.012 4.15-9.747s6.06-4.103 9.87-4.103h96.56z" fill-rule="evenodd"/>
  </mask>
  <path fill="#F8F8F8" clip-rule="evenodd" d="m419.02 12c3.81 0 7.1 1.368 9.86 4.103 2.77 2.735 4.16 5.983 4.16 9.744v17.562l58.39 33.71c3.33 1.925 3.33 6.736 0 8.661l-58.39 33.71v237.66c0 3.76-1.39 7.01-4.16 9.75-2.76 2.73-6.05 4.1-9.86 4.1h-83.58c-8.31 0-15.23-3.59-20.77-10.77l-113.18-142.57v139.49c0 3.76-1.39 7.01-4.15 9.75-2.77 2.73-6.06 4.1-9.87 4.1h-96.564c-3.808 0-7.096-1.37-9.865-4.1-2.769-2.74-4.153-5.99-4.153-9.75v-15.07l-58.388-33.71c-3.333-1.92-3.333-6.73 0-8.66l58.388-33.71v-240.15c0-3.764 1.384-7.012 4.153-9.747s6.057-4.103 9.865-4.103h84.104c8.31 0 15.06 3.419 20.25 10.257l113.18 154.37v-150.78c0-3.764 1.38-7.012 4.15-9.747s6.06-4.103 9.87-4.103h96.56z" fill-rule="evenodd"/>
  <path mask="url(#path-1-outside-1)" d="m428.88 16.103l-8.43 8.537 8.43-8.537zm4.16 27.306h-12v6.928l6 3.464 6-10.392zm58.39 33.71l-6 10.393 6-10.393zm0 8.661l-6-10.393 6 10.393zm-58.39 33.71l-6-10.39-6 3.46v6.93h12zm-4.16 247.41l8.44 8.53-8.44-8.53zm-114.21-6.67l9.5-7.33-0.05-0.06-0.05-0.07-9.4 7.46zm-113.18-142.57l9.4-7.46-21.4-26.96v34.42h12zm-4.15 149.24l8.43 8.53-8.43-8.53zm-116.3 0l-8.433 8.53 8.433-8.53zm-4.153-24.82h12v-6.92l-6-3.47-6 10.39zm-58.388-33.71l6-10.39-6 10.39zm0-8.66l6 10.4-6-10.4zm58.388-33.71l6 10.4 6-3.47v-6.93h-12zm4.153-249.9l8.433 8.537-8.433-8.537zm114.22 6.154l9.68-7.095-0.06-0.081-0.06-0.08-9.56 7.256zm113.18 154.37l-9.68 7.09 21.68 29.57v-36.66h-12zm4.15-160.53l8.43 8.537-8.43-8.537zm124.73-8.5371c-4.96-4.8987-11.26-7.5659-18.3-7.5659v24c0.43 0 0.63 0.07 0.71 0.106 0.09 0.037 0.33 0.151 0.72 0.534l16.87-17.074zm7.72 18.281c0-7.092-2.76-13.379-7.72-18.281l-16.87 17.074c0.39 0.384 0.49 0.606 0.51 0.656 0.02 0.041 0.08 0.181 0.08 0.551h24zm0 17.562v-17.562h-24v17.562h24zm52.39 23.318l-58.39-33.71-12 20.784 58.39 33.711 12-20.785zm0 29.445c11.33-6.544 11.33-22.902 0-29.445l-12 20.785c-4.67-2.695-4.67-9.43 0-12.125l12 20.785zm-58.39 33.708l58.39-33.708-12-20.785-58.39 33.713 12 20.78zm6 227.27v-237.66h-24v237.66h24zm-7.72 18.28c4.96-4.9 7.72-11.19 7.72-18.28h-24c0 0.37-0.06 0.51-0.08 0.55-0.02 0.05-0.12 0.28-0.51 0.66l16.87 17.07zm-18.3 7.57c7.04 0 13.34-2.67 18.3-7.57l-16.87-17.07c-0.39 0.38-0.63 0.5-0.72 0.53-0.08 0.04-0.28 0.11-0.71 0.11v24zm-83.58 0h83.58v-24h-83.58v24zm-30.27-15.44c7.57 9.81 17.86 15.44 30.27 15.44v-24c-4.22 0-7.76-1.55-11.27-6.1l-19 14.66zm-113.08-142.44l113.18 142.57 18.8-14.92-113.18-142.57-18.8 14.92zm21.4 132.03v-139.49h-24v139.49h24zm-7.72 18.28c4.96-4.9 7.72-11.19 7.72-18.28h-24c0 0.37-0.06 0.51-0.08 0.55-0.02 0.05-0.12 0.28-0.51 0.66l16.87 17.07zm-18.3 7.57c7.04 0 13.34-2.67 18.3-7.57l-16.87-17.07c-0.39 0.38-0.63 0.5-0.72 0.53-0.08 0.04-0.28 0.11-0.71 0.11v24zm-96.564 0h96.564v-24h-96.564v24zm-18.298-7.57c4.959 4.9 11.255 7.57 18.298 7.57v-24c-0.433 0-0.629-0.07-0.714-0.11-0.09-0.03-0.33-0.15-0.718-0.53l-16.866 17.07zm-7.72-18.28c0 7.09 2.758 13.38 7.72 18.28l16.866-17.07c-0.388-0.38-0.488-0.61-0.509-0.66-0.017-0.04-0.077-0.18-0.077-0.55h-24zm0-15.07v15.07h24v-15.07h-24zm18-10.39l-58.388-33.71-12 20.79 58.388 33.71 12-20.79zm-58.388-33.71c4.667 2.7 4.667 9.43 0 12.13l-12-20.79c-11.333 6.54-11.333 22.9 0 29.45l12-20.79zm0 12.13l58.388-33.71-12-20.79-58.388 33.71 12 20.79zm40.388-284.26v240.15h24v-240.15h-24zm7.72-18.281c-4.962 4.9021-7.72 11.189-7.72 18.281h24c0-0.37 0.06-0.51 0.077-0.551 0.021-0.05 0.121-0.272 0.509-0.656l-16.866-17.074zm18.298-7.5659c-7.043 0-13.339 2.6672-18.298 7.5659l16.866 17.074c0.388-0.383 0.629-0.497 0.718-0.534 0.085-0.036 0.281-0.106 0.714-0.106v-24zm84.104 0h-84.104v24h84.104v-24zm29.81 15.001c-7.38-9.7092-17.6-15.001-29.81-15.001v24c4.41 0 7.68 1.546 10.69 5.514l19.12-14.513zm113.3 154.53l-113.18-154.37-19.36 14.192 113.18 154.37 19.36-14.19zm-21.68-143.68v150.78h24v-150.78h-24zm7.72-18.281c-4.96 4.9022-7.72 11.189-7.72 18.281h24c0-0.37 0.06-0.51 0.08-0.551 0.02-0.05 0.12-0.272 0.5-0.656l-16.86-17.074zm18.3-7.5658c-7.05 0-13.34 2.6672-18.3 7.5659l16.86 17.074c0.39-0.383 0.63-0.497 0.72-0.534 0.09-0.036 0.28-0.106 0.72-0.106v-24zm96.56 0h-96.56v24h96.56v-24z" fill="#2B2B2B"/>
 </g>
 <defs>
  <filter id="filter0_d" height="391" width="509.93" color-interpolation-filters="sRGB" y="0" x="0" filterUnits="userSpaceOnUse">
   <feFlood flood-opacity="0" result="BackgroundImageFix"/>
   <feColorMatrix values="0 0 0 0 0 0 0 0 0 0 0 0 0 0 0 0 0 0 127 0" type="matrix" in="SourceAlpha"/>
   <feOffset dy="4"/>
   <feGaussianBlur stdDeviation="2"/>
   <feColorMatrix values="0 0 0 0 0 0 0 0 0 0 0 0 0 0 0 0 0 0 0.25 0" type="matrix"/>
   <feBlend mode="normal" in2="BackgroundImageFix" result="effect1_dropShadow"/>
   <feBlend result="shape" mode="normal" in2="effect1_dropShadow" in="SourceGraphic"/>
  </filter>
 </defs>
</svg>
