<svg width="664" height="226" xmlns="http://www.w3.org/2000/svg"><mask id="a" maskUnits="userSpaceOnUse" x="0" y="0" width="288" height="226" fill="#000"><path fill="#fff" d="M0 0h288v226H0z"/><path fillRule="evenodd" clipRule="evenodd" d="M236 12l6 2 2 6v10h1l29 17c3 2 3 6 0 8l-29 17h-1v134l-2 5-6 3h-47c-4 0-8-2-11-6l-64-81v79l-2 5-6 3H52l-6-3-2-5v-9h-1l-28-17c-4-2-4-6 0-8l28-17h1V20l2-6 6-2h47c5 0 9 2 11 6l64 86V20l2-6 6-2h54z"/></mask><g filter="url(#filter0_i)"><path fillRule="evenodd" clipRule="evenodd" d="M236 12l6 2 2 6v10h1l29 17c3 2 3 6 0 8l-29 17h-1v134l-2 5-6 3h-47c-4 0-8-2-11-6l-64-81v79l-2 5-6 3H52l-6-3-2-5v-9h-1l-28-17c-4-2-4-6 0-8l28-17h1V20l2-6 6-2h47c5 0 9 2 11 6l64 86V20l2-6 6-2h54z" fill="#F8F8F8"/></g><path d="M242 14l-9 9 9-9zm2 16h-12v9l8 2 4-11zm1 0l-6 11 6-11zm29 17l-6 10 6-10zm0 8l-6-10 6 10zm-29 17l-6-11 6 11zm-1 0l-4-11-8 2v9h12zm-2 139l-9-8 9 8zm-64-3l9-8-9 8zm-64-81l9-7-21-27v34h12zm-70 70h12v-9l-8-2-4 11zm-1 0l6-11-6 11zm-28-17l6-10-6 10zm0-8l6 10-6-10zm28-17l6 11-6-11zm1 0l4 11 8-2v-9H44zm66-137l10-7-10 7zm64 86l-10 8 22 29v-37h-12zm2-90l9 9-9-9zm74-8c-4-4-8-6-14-6v24a4 4 0 01-3-1l17-17zm6 14c0-6-2-11-6-14l-17 17-1-1v-2h24zm0 10V20h-24v10h24zm-5-10l-3-2-8 23h-1l12-21zm29 16l-29-16-12 21 29 16 12-21zm0 30c11-7 11-23 0-30l-12 21c-5-3-5-9 0-12l12 21zm-29 16l29-16-12-21-29 16 12 21zm-3 2l3-2-12-21h1l8 23zm8 122V72h-24v134h24zm-6 14c4-4 6-9 6-14h-24a5 5 0 011-3l17 17zm-14 6c6 0 10-2 14-6l-17-17 2-1h1v24zm-47 0h47v-24h-47v24zm-21-11c5 7 12 11 21 11v-24l-1-1-1-1-19 15zm-63-80l63 80 19-15-64-80-18 15zm21 71v-79h-24v79h24zm-6 14c4-4 6-9 6-14h-24a5 5 0 011-3l17 17zm-14 6c5 0 10-2 14-6l-17-17 1-1h2v24zm-54 0h54v-24H52v24zm-14-6c4 4 8 6 14 6v-24a4 4 0 013 1l-17 17zm-6-14c0 5 2 10 6 14l17-17 1 1v2H32zm0-9v9h24v-9H32zm16-11h1l-12 21 3 2 8-23zm1 0l-28-16-12 21 28 16 12-21zm-28-16c4 3 4 9 0 12L9 161c-12 7-12 23 0 30l12-21zm0 12l28-16-12-21-28 16 12 21zm28-16h-1l-8-23-3 2 12 21zM32 20v135h24V20H32zm6-14c-4 3-6 8-6 14h24a5 5 0 01-1 3L38 6zm14-6c-6 0-10 2-14 6l17 17-2 1h-1V0zm47 0H52v24h47V0zm21 11c-5-7-12-11-21-11v24h1l1 1 19-14zm64 86l-64-86-19 14 63 87 20-15zm-22-77v84h24V20h-24zm6-14c-4 3-6 8-6 14h24a5 5 0 01-1 3L168 6zm14-6c-5 0-10 2-14 6l17 17-1 1h-2V0zm54 0h-54v24h54V0z" fill="#2B2B2B" mask="url(#a)"/><path d="M318 141c10 0 17 2 22 7 4 5 7 12 7 21v39l-2 4-4 2-5-2-1-4v-3c-6 6-13 9-23 9h-8c-8 0-14-2-18-6s-6-10-6-18 2-14 6-18 10-6 18-6h30c0-5-1-8-4-10-2-2-6-3-12-3h-8l-11 1-5 4-2 4-4 1-5-1-1-4v-1c1-6 4-10 9-12 4-3 11-4 19-4h8zm16 51v-1l1-1v-12h-31l-7 1-4 4-1 7 1 7 4 4 7 1h8c12 0 20-3 22-10zM406 202c4 0 6 2 6 6l-2 4-4 2c-10 0-17-2-21-7-5-4-7-11-7-21v-33h-7l-4-1-2-5c0-4 2-6 6-6h7v-11l2-4 4-2 5 2 1 4v11h17c4 0 6 2 6 6l-2 5-4 1h-17v33l2 10 4 5 10 1zM466 141c10 0 17 2 22 7 4 5 7 12 7 21v39l-2 4-4 2-5-2-1-4v-3c-5 6-13 9-23 9h-8c-8 0-14-2-18-6s-6-10-6-18 2-14 6-18 10-6 18-6h30c0-5-1-8-3-10-3-2-7-3-13-3h-8l-11 1-5 4-2 4-4 1-5-1-1-4v-1c1-6 4-10 9-12 4-3 11-4 19-4h8zm16 51v-1l1-1v-12h-31l-7 1-4 4-1 7 1 7 4 4 7 1h8c12 0 20-3 22-10zM576 204c2 1 2 2 2 4l-2 4-4 2-5-2-25-29-7 6v19l-1 4-5 2-4-2-2-4v-89l2-5 4-1 5 1 1 5v54l35-30 4-2 4 3 2 4c0 2-1 3-3 4l-26 23 25 29zM656 141l4 2 2 4v61c0 4-2 6-6 6s-6-2-6-6v-2c-6 5-13 8-23 8h-4c-10 0-17-2-21-7-5-5-7-12-7-21v-39l1-4 5-2 4 2 2 4v39l1 10c1 2 3 4 5 4l10 2h4l15-2c5-2 7-4 8-6v-47l1-4 5-2z" fill="#2B2B2B"/><path fillRule="evenodd" clipRule="evenodd" d="M284 171c5-5 12-7 20-7h28c0-3-1-5-3-6-2-2-5-3-11-3h-8l-10 1-4 2-3 5-5 2-6-2c-2-1-2-3-2-5v-2c1-6 5-10 10-13s12-4 20-4h8c10 0 18 2 23 7 5 6 8 13 8 23v39l-3 6-5 2-6-2-2-5c-6 5-13 7-21 7h-8c-8 0-15-2-19-6-5-5-7-12-7-20s2-15 6-19zm49 36c-5 5-12 7-21 7h-8c-8 0-14-2-18-6s-6-10-6-18 2-14 6-18 10-6 18-6h30v-2c0-4-2-6-4-8s-6-3-12-3h-8l-11 1-5 4-2 4-4 1-5-1-1-4v-1c1-6 4-10 9-12 4-3 11-4 19-4h8c10 0 17 2 22 7 4 5 7 12 7 21v39l-2 4-4 2-5-2-1-4v-3l-2 2zm-1-16l1-1v-10h-29l-7 1-2 3-1 6 1 7 2 2 7 1h8c12 0 18-3 20-9zm2 1v-1l1-1v-12h-31l-7 1-4 4-1 7 1 7 4 4 7 1h8c12 0 20-3 22-10zm78 10l2 6-2 6-6 2c-10 0-17-2-23-7-5-5-7-13-7-23v-31h-5l-6-2-2-6 2-6 6-2h5v-9l2-5 6-3c2 0 5 1 6 3 2 1 2 3 2 5v9h15l6 2 2 6-2 6-6 2h-15v31l1 9 4 4 9 1c2 0 4 0 6 2zm-16-1l-4-5-2-10v-33h17l4-1 2-5c0-4-2-6-6-6h-17v-11l-1-4-5-2-4 2-2 4v11h-7c-4 0-6 2-6 6l2 5 4 1h7v33c0 10 2 17 7 21 4 5 11 7 21 7l4-2 2-4c0-4-2-6-6-6l-10-1zm37-30c4-5 11-7 19-7h28c0-3-1-5-3-6-1-2-5-3-11-3h-8l-10 1-4 2-3 5-5 2-6-2-2-5v-2c2-6 5-10 10-13s12-4 20-4h8c10 0 18 2 23 7 5 6 8 13 8 23v39l-2 6-6 2-6-2-2-5c-6 5-12 7-21 7h-8c-8 0-15-2-19-6-5-5-7-12-7-20s2-15 7-19zm48 36c-5 5-12 7-21 7h-8c-8 0-14-2-18-6s-6-10-6-18 2-14 6-18 10-6 18-6h30v-2c0-4-1-6-3-8-3-2-7-3-13-3h-8l-11 1-5 4-2 4-4 1-5-1-1-4v-1c1-6 4-10 9-12 4-3 11-4 19-4h8c10 0 17 2 22 7 4 5 7 12 7 21v39l-2 4-4 2-5-2-1-4v-3l-2 2zm1-16l1-1v-12h-31l-7 1-4 4-1 7 1 7 4 4 7 1h8c12 0 20-3 22-10v-1zm-1-11h-29l-7 1-2 3-1 6 1 7 2 2 7 1h8c12 0 18-3 20-9l1-1v-10zm96 34l-5 2c-3 0-5-1-6-3l-24-27-5 4v18c0 2 0 4-2 6l-6 2-6-2-2-6v-89l2-6c2-2 4-2 6-2 3 0 5 0 6 2 2 1 2 3 2 6v49l31-26 6-3c2 0 4 2 6 4l2 5-3 6-25 21 24 27 2 6-3 6zm-1-10l-25-29 26-23c2-1 3-2 3-4l-2-4-4-3-4 2-35 30v-54l-1-5-5-1-4 1-2 5v89l2 4 4 2 5-2 1-4v-19l7-6 25 29 5 2 4-2 2-4c0-2 0-3-2-4zm80-65l5 2 3 6v61l-2 6-6 2-6-2-2-4c-6 4-13 6-21 6h-4c-10 0-18-2-23-7-5-6-7-13-7-23v-39c0-2 0-4 2-6l6-2 6 2 2 6v39l1 9 4 4 9 1h4l15-2c4-1 5-3 6-5v-46c0-2 0-4 2-6l6-2zm-6 55c-1 2-3 4-8 6l-15 2h-4l-10-2c-2 0-4-2-5-4l-1-10v-39l-2-4-4-2-5 2-1 4v39c0 9 2 16 7 21 4 5 11 7 21 7h4c9 0 16-2 21-7l2-1v2c0 4 2 6 6 6s6-2 6-6v-61l-2-4-4-2-5 2-1 4v47z" fill="#2B2B2B"/><defs><filter id="filter0_i" x="0" y="0" width="288" height="229.6" filterUnits="userSpaceOnUse" color-interpolation-filters="sRGB"><feFlood flood-opacity="0" result="BackgroundImageFix"/><feBlend in="SourceGraphic" in2="BackgroundImageFix" result="shape"/><feColorMatrix in="SourceAlpha" values="0 0 0 0 0 0 0 0 0 0 0 0 0 0 0 0 0 0 127 0" result="hardAlpha"/><feOffset dy="4"/><feGaussianBlur stdDeviation="2"/><feComposite in2="hardAlpha" operator="arithmetic" k2="-1" k3="1"/><feColorMatrix values="0 0 0 0 0 0 0 0 0 0 0 0 0 0 0 0 0 0 0.25 0"/><feBlend in2="shape" result="effect1_innerShadow"/></filter></defs></svg>
