<svg width="288" height="226" fill="none" xmlns="http://www.w3.org/2000/svg"><mask id="a" maskUnits="userSpaceOnUse" x="0" y="0" width="288" height="226" fill="#000"><path fill="#fff" d="M0 0h288v226H0z"/><path fillRule="evenodd" clipRule="evenodd" d="M236 12l6 2 2 6v10h1l29 17c3 2 3 6 0 8l-29 17h-1v134l-2 5-6 3h-47c-4 0-8-2-11-6l-64-81v79l-2 5-6 3H52l-6-3-2-5v-9h-1l-28-17c-4-2-4-6 0-8l28-17h1V20l2-6 6-2h47c5 0 9 2 11 6l64 86V20l2-6 6-2h54z"/></mask><path fillRule="evenodd" clipRule="evenodd" d="M236 12l6 2 2 6v10h1l29 17c3 2 3 6 0 8l-29 17h-1v134l-2 5-6 3h-47c-4 0-8-2-11-6l-64-81v79l-2 5-6 3H52l-6-3-2-5v-9h-1l-28-17c-4-2-4-6 0-8l28-17h1V20l2-6 6-2h47c5 0 9 2 11 6l64 86V20l2-6 6-2h54z" fill="#F8F8F8"/><path d="M242 14l-9 9 9-9zm2 16h-12v9l8 2 4-11zm1 0l-6 11 6-11zm29 17l-6 10 6-10zm0 8l-6-10 6 10zm-29 17l-6-11 6 11zm-1 0l-4-11-8 2v9h12zm-2 139l-9-8 9 8zm-64-3l9-8-9 8zm-64-81l9-7-21-27v34h12zm-70 70h12v-9l-8-2-4 11zm-1 0l6-11-6 11zm-28-17l6-10-6 10zm0-8l6 10-6-10zm28-17l6 11-6-11zm1 0l4 11 8-2v-9H44zm66-137l10-7-10 7zm64 86l-10 8 22 29v-37h-12zm2-90l9 9-9-9zm74-8c-4-4-8-6-14-6v24a4 4 0 01-3-1l17-17zm6 14c0-6-2-11-6-14l-17 17-1-1v-2h24zm0 10V20h-24v10h24zm-5-10l-3-2-8 23h-1l12-21zm29 16l-29-16-12 21 29 16 12-21zm0 30c11-7 11-23 0-30l-12 21c-5-3-5-9 0-12l12 21zm-29 16l29-16-12-21-29 16 12 21zm-3 2l3-2-12-21h1l8 23zm8 122V72h-24v134h24zm-6 14c4-4 6-9 6-14h-24a5 5 0 011-3l17 17zm-14 6c6 0 10-2 14-6l-17-17 2-1h1v24zm-47 0h47v-24h-47v24zm-21-11c5 7 12 11 21 11v-24l-1-1-1-1-19 15zm-63-80l63 80 19-15-64-80-18 15zm21 71v-79h-24v79h24zm-6 14c4-4 6-9 6-14h-24a5 5 0 011-3l17 17zm-14 6c5 0 10-2 14-6l-17-17 1-1h2v24zm-54 0h54v-24H52v24zm-14-6c4 4 8 6 14 6v-24a4 4 0 013 1l-17 17zm-6-14c0 5 2 10 6 14l17-17 1 1v2H32zm0-9v9h24v-9H32zm16-11h1l-12 21 3 2 8-23zm1 0l-28-16-12 21 28 16 12-21zm-28-16c4 3 4 9 0 12L9 161c-12 7-12 23 0 30l12-21zm0 12l28-16-12-21-28 16 12 21zm28-16h-1l-8-23-3 2 12 21zM32 20v135h24V20H32zm6-14c-4 3-6 8-6 14h24a5 5 0 01-1 3L38 6zm14-6c-6 0-10 2-14 6l17 17-2 1h-1V0zm47 0H52v24h47V0zm21 11c-5-7-12-11-21-11v24h1l1 1 19-14zm64 86l-64-86-19 14 63 87 20-15zm-22-77v84h24V20h-24zm6-14c-4 3-6 8-6 14h24a5 5 0 01-1 3L168 6zm14-6c-5 0-10 2-14 6l17 17-1 1h-2V0zm54 0h-54v24h54V0z" fill="#2B2B2B" mask="url(#a)"/></svg>